# xmcd
#
# Track frame offsets:
#	150
#	14245
#	22156
#	31677
#	51376
#	64231
#	78681
#	91221
#	101079
#	114472
#
# Disc length: 1713 seconds
#
# Revision: 1
# Processed by: cddbd v1.5.2PL0 Copyright (c) Steve Scherf et al.
# Submitted via: audiograbber 1.83.01
#
DISCID=8706af0a
DTITLE=the Ferocious Few - Juices
DYEAR=2008
DGENRE=
TTITLE0=Loc'd Out
TTITLE1=Magpie
TTITLE2=Back Home
TTITLE3=Heaven or Hell
TTITLE4=Sawblades
TTITLE5=Crying Shame
TTITLE6=Anywhere in Love
TTITLE7=Rose Knows
TTITLE8=Desert Sands
TTITLE9=Midnite Ghost
EXTD=
EXTT0=
EXTT1=
EXTT2=
EXTT3=
EXTT4=
EXTT5=
EXTT6=
EXTT7=
EXTT8=
EXTT9=
PLAYORDER=
